<svg width="19" height="20" viewBox="0 0 19 20" fill="none" xmlns="http://www.w3.org/2000/svg">
<g id="Frame" clip-path="url(#clip0_885_6092)">
<g id="Group">
<path id="Vector" d="M15.6307 15.9435C19.0185 12.5206 19.0185 6.97087 15.6307 3.54791C12.243 0.124951 6.75035 0.124949 3.36259 3.54791C-0.0251656 6.97087 -0.0251656 12.5206 3.36259 15.9435C6.75035 19.3665 12.243 19.3665 15.6307 15.9435Z" fill="#1D1E1D"/>
<path id="Vector_2" d="M18.704 8.77111C18.2214 4.06369 14.2837 0.393433 9.49684 0.393433C4.71002 0.393433 0.773611 4.06369 0.291016 8.77111H18.704Z" fill="url(#paint0_linear_885_6092)"/>
<path id="Vector_3" d="M0.291016 10.7192C0.773611 15.4266 4.71133 19.0968 9.49684 19.0968C14.2824 19.0968 18.2214 15.4266 18.7027 10.7192H0.291016Z" fill="#E7E7E9"/>
<g id="Group_2">
<path id="Vector_4" d="M9.49652 12.6917C11.1072 12.6917 12.413 11.3724 12.413 9.74496C12.413 8.11752 11.1072 6.79822 9.49652 6.79822C7.88581 6.79822 6.58008 8.11752 6.58008 9.74496C6.58008 11.3724 7.88581 12.6917 9.49652 12.6917Z" fill="#1D1E1D"/>
<path id="Vector_5" d="M9.49738 12.0472C10.7558 12.0472 11.776 11.0164 11.776 9.74488C11.776 8.47335 10.7558 7.44257 9.49738 7.44257C8.23893 7.44257 7.21875 8.47335 7.21875 9.74488C7.21875 11.0164 8.23893 12.0472 9.49738 12.0472Z" fill="#F7F7F7"/>
<path id="Vector_6" d="M9.49677 11.2986C10.3461 11.2986 11.0346 10.6029 11.0346 9.7448C11.0346 8.88668 10.3461 8.19104 9.49677 8.19104C8.64747 8.19104 7.95898 8.88668 7.95898 9.7448C7.95898 10.6029 8.64747 11.2986 9.49677 11.2986Z" fill="#B8B5B5"/>
<path id="Vector_7" d="M9.49657 11.1839C10.2832 11.1839 10.9209 10.5396 10.9209 9.74483C10.9209 8.95004 10.2832 8.30573 9.49657 8.30573C8.70995 8.30573 8.07227 8.95004 8.07227 9.74483C8.07227 10.5396 8.70995 11.1839 9.49657 11.1839Z" fill="#F7F7F7"/>
</g>
</g>
</g>
<defs>
<linearGradient id="paint0_linear_885_6092" x1="20.2658" y1="7.40594" x2="3.66851" y2="7.75074" gradientUnits="userSpaceOnUse">
<stop stop-color="#B57E10"/>
<stop offset="0.240861" stop-color="#B57E10"/>
<stop offset="0.404291" stop-color="#F9DF7B"/>
<stop offset="0.59375" stop-color="#FFF3A6"/>
<stop offset="0.78125" stop-color="#F9DF7B"/>
<stop offset="1" stop-color="#B57E10"/>
</linearGradient>
<clipPath id="clip0_885_6092">
<rect width="18.413" height="18.7045" fill="white" transform="translate(0.291016 0.393433)"/>
</clipPath>
</defs>
</svg>
